PathFileType	4	(X/Y/Z)	 2.2Hzhigh3min.trc
DataRate	CameraRate	NumFrames	NumMarkers	Units	OrigDataRate	OrigDataStartFrame	OrigNumFrames
200	200	8	35	m	200	376	1000
Frame#	Time	C7			LSH			RSH			MAN			RASI			LASI			HIPR			HIPL			RPSI			LPSI			COX			RTHI1			RTHI2			RTHI3			RTHI4			RSHA1			RSHA2			RSHA3			RSHA4			RHEEL			RMET5			RMET1			RTOE			LTHI1			LTHI2			LTHI3			LTHI4			LSHA1			LSHA2			LSHA3			LSHA4			LHEEL			LMET5			LMET1			LTOE			
		X1	Y1	Z1	X2	Y2	Z2	X3	Y3	Z3	X4	Y4	Z4	X5	Y5	Z5	X6	Y6	Z6	X7	Y7	Z7	X8	Y8	Z8	X9	Y9	Z9	X10	Y10	Z10	X11	Y11	Z11	X12	Y12	Z12	X13	Y13	Z13	X14	Y14	Z14	X15	Y15	Z15	X16	Y16	Z16	X17	Y17	Z17	X18	Y18	Z18	X19	Y19	Z19	X20	Y20	Z20	X21	Y21	Z21	X22	Y22	Z22	X23	Y23	Z23	X24	Y24	Z24	X25	Y25	Z25	X26	Y26	Z26	X27	Y27	Z27	X28	Y28	Z28	X29	Y29	Z29	X30	Y30	Z30	X31	Y31	Z31	X32	Y32	Z32	X33	Y33	Z33	X34	Y34	Z34	X35	Y35	Z35	
376	1.8800	-0.308001	1.727926	-0.526802	-0.276498	1.700726	-0.752235	-0.263778	1.707311	-0.327388	-0.166978	1.678195	-0.539383	-0.136874	1.212823	-0.414219	-0.140158	1.204514	-0.640006	-0.192051	1.285058	-0.368524	-0.000000	0.000000	-0.000000	-0.320271	1.252856	-0.463507	-0.000000	0.000000	-0.000000	-0.330218	1.256656	-0.519165	-0.220987	1.005583	-0.326239	-0.208802	0.947560	-0.314877	-0.146043	0.953865	-0.330398	-0.150254	1.013994	-0.343475	-0.311516	0.430680	-0.308366	-0.000000	0.000000	-0.000000	-0.259028	0.383427	-0.311673	-0.254983	0.423240	-0.308121	-0.378165	0.174832	-0.359591	-0.223009	0.069524	-0.313271	-0.190877	0.085199	-0.395072	-0.160762	0.079151	-0.391803	-0.223884	0.959139	-0.731578	-0.202337	0.902233	-0.740400	-0.139680	0.918471	-0.734294	-0.153229	0.975928	-0.726096	-0.330778	0.418100	-0.743612	-0.342778	0.380041	-0.739567	-0.281712	0.365665	-0.746974	-0.277723	0.410344	-0.751186	-0.411467	0.184298	-0.693927	-0.266465	0.078414	-0.772093	-0.224697	0.078730	-0.703135	-0.195647	0.068365	-0.712227	
377	1.8850	-0.307745	1.726163	-0.526757	-0.276152	1.698766	-0.752289	-0.263478	1.705210	-0.327212	-0.166851	1.676126	-0.539343	-0.137639	1.210862	-0.414081	-0.140783	1.202546	-0.639949	-0.192929	1.282912	-0.368422	-0.000000	0.000000	-0.000000	-0.321115	1.250215	-0.463626	-0.000000	0.000000	-0.000000	-0.331019	1.253923	-0.519197	-0.220395	1.003436	-0.326250	-0.207814	0.945501	-0.314973	-0.145147	0.952180	-0.330705	-0.149728	1.012269	-0.343766	-0.311088	0.429210	-0.308097	-0.000000	0.000000	-0.000000	-0.258954	0.381534	-0.311768	-0.254613	0.421316	-0.308186	-0.379794	0.173864	-0.359722	-0.225071	0.067868	-0.313404	-0.192615	0.083336	-0.395175	-0.162506	0.076932	-0.391969	-0.222712	0.957081	-0.731609	-0.200769	0.900272	-0.740131	-0.138289	0.916774	-0.733306	-0.152205	0.974202	-0.725293	-0.330402	0.416923	-0.743585	-0.342667	0.378920	-0.739491	-0.281690	0.364150	-0.746973	-0.277410	0.408792	-0.751200	-0.412583	0.183402	-0.693598	-0.267832	0.077242	-0.771641	-0.225661	0.077957	-0.702966	-0.196641	0.067442	-0.712089	
378	1.8900	-0.307477	1.724157	-0.526710	-0.275807	1.696585	-0.752322	-0.263177	1.702875	-0.327036	-0.166719	1.673802	-0.539301	-0.138417	1.208609	-0.413952	-0.141409	1.200284	-0.639885	-0.193829	1.280498	-0.368313	-0.000000	0.000000	-0.000000	-0.321967	1.247333	-0.463747	-0.000000	0.000000	-0.000000	-0.331821	1.250956	-0.519235	-0.219805	1.000990	-0.326327	-0.206818	0.943152	-0.315118	-0.144240	0.950235	-0.331013	-0.149181	1.010261	-0.344064	-0.310642	0.427504	-0.307882	-0.000000	0.000000	-0.000000	-0.258881	0.379418	-0.311892	-0.254233	0.419160	-0.308270	-0.381457	0.172780	-0.359941	-0.227351	0.065931	-0.313506	-0.194484	0.081107	-0.395225	-0.164392	0.074274	-0.392060	-0.221580	0.954801	-0.731634	-0.199249	0.898077	-0.739840	-0.136950	0.914855	-0.732379	-0.151227	0.972256	-0.724522	-0.329973	0.415535	-0.743549	-0.342496	0.377609	-0.739416	-0.281624	0.362427	-0.746937	-0.277041	0.407039	-0.751201	-0.413707	0.182439	-0.693360	-0.269224	0.075662	-0.770864	-0.226776	0.076853	-0.702468	-0.197789	0.066174	-0.711573	
379	1.8950	-0.307199	1.721902	-0.526656	-0.275469	1.694181	-0.752332	-0.262879	1.700304	-0.326859	-0.166585	1.671220	-0.539252	-0.139279	1.206117	-0.413832	-0.142023	1.197725	-0.639817	-0.194742	1.277816	-0.368197	-0.000000	0.000000	-0.000000	-0.322825	1.244220	-0.463868	-0.000000	0.000000	-0.000000	-0.332633	1.247782	-0.519295	-0.219219	0.998261	-0.326474	-0.205824	0.940531	-0.315304	-0.143333	0.948024	-0.331333	-0.148623	1.007972	-0.344373	-0.310190	0.425579	-0.307713	-0.000000	0.000000	-0.000000	-0.258818	0.377090	-0.312040	-0.253847	0.416787	-0.308379	-0.383137	0.171564	-0.360217	-0.229825	0.063733	-0.313589	-0.196479	0.078527	-0.395237	-0.166419	0.071184	-0.392096	-0.220509	0.952287	-0.731634	-0.197786	0.895654	-0.739576	-0.135676	0.912718	-0.731544	-0.150307	0.970071	-0.723809	-0.329487	0.413927	-0.743514	-0.342272	0.376097	-0.739343	-0.281496	0.360497	-0.746901	-0.276611	0.405080	-0.751189	-0.414842	0.181361	-0.693157	-0.270639	0.073729	-0.769802	-0.228027	0.075404	-0.701629	-0.199078	0.064547	-0.710659	
380	1.9000	-0.306914	1.719388	-0.526592	-0.275133	1.691547	-0.752317	-0.262589	1.697499	-0.326680	-0.166452	1.668387	-0.539195	-0.140165	1.203364	-0.413721	-0.142636	1.194888	-0.639744	-0.195659	1.274866	-0.368077	-0.000000	0.000000	-0.000000	-0.323680	1.240887	-0.463996	-0.000000	0.000000	-0.000000	-0.333440	1.244403	-0.519364	-0.218649	0.995246	-0.326654	-0.204841	0.937646	-0.315535	-0.142432	0.945543	-0.331666	-0.148094	1.005429	-0.344712	-0.309735	0.423444	-0.307593	-0.000000	0.000000	-0.000000	-0.258778	0.374555	-0.312219	-0.253469	0.414201	-0.308518	-0.384848	0.170226	-0.360575	-0.232480	0.061262	-0.313651	-0.198602	0.075600	-0.395224	-0.168597	0.067684	-0.392098	-0.219515	0.949532	-0.731614	-0.196406	0.892976	-0.739351	-0.134483	0.910355	-0.730842	-0.149462	0.967649	-0.723182	-0.328939	0.412089	-0.743503	-0.341980	0.374358	-0.739289	-0.281305	0.358355	-0.746845	-0.276118	0.402900	-0.751164	-0.415962	0.180136	-0.692989	-0.272024	0.071426	-0.768490	-0.229387	0.073619	-0.700471	-0.200489	0.062554	-0.709353	
381	1.9050	-0.306627	1.716620	-0.526518	-0.274798	1.688685	-0.752279	-0.262309	1.694458	-0.326499	-0.166322	1.665291	-0.539124	-0.141044	1.200336	-0.413630	-0.143253	1.191785	-0.639664	-0.196573	1.271655	-0.367959	-0.000000	0.000000	-0.000000	-0.324538	1.237350	-0.464117	-0.000000	0.000000	-0.000000	-0.334245	1.240828	-0.519438	-0.218096	0.991958	-0.326864	-0.203876	0.934481	-0.315803	-0.141548	0.942801	-0.332009	-0.147601	1.002625	-0.345075	-0.309281	0.421108	-0.307510	-0.000000	0.000000	-0.000000	-0.258754	0.371827	-0.312418	-0.253095	0.411412	-0.308673	-0.386579	0.168774	-0.361027	-0.235304	0.058530	-0.313704	-0.200856	0.072346	-0.395207	-0.170930	0.063799	-0.392085	-0.218606	0.946531	-0.731576	-0.195144	0.890083	-0.739208	-0.133382	0.907772	-0.730294	-0.148700	0.964988	-0.722660	-0.328332	0.410021	-0.743553	-0.341627	0.372425	-0.739255	-0.281046	0.355994	-0.746764	-0.275554	0.400493	-0.751120	-0.417051	0.178757	-0.692859	-0.273341	0.068753	-0.766958	-0.230848	0.071479	-0.699001	-0.202005	0.060191	-0.707664	
382	1.9100	-0.306340	1.713588	-0.526430	-0.274457	1.685588	-0.752219	-0.262038	1.691184	-0.326317	-0.166199	1.661948	-0.539037	-0.141942	1.197039	-0.413550	-0.143868	1.188423	-0.639576	-0.197479	1.268191	-0.367843	-0.000000	0.000000	-0.000000	-0.325389	1.233622	-0.464232	-0.000000	0.000000	-0.000000	-0.335049	1.237071	-0.519522	-0.217561	0.988422	-0.327142	-0.202934	0.931058	-0.316097	-0.140682	0.939805	-0.332357	-0.147145	0.999563	-0.345462	-0.308826	0.418575	-0.307461	-0.000000	0.000000	-0.000000	-0.258748	0.368906	-0.312645	-0.252738	0.408430	-0.308850	-0.388325	0.167205	-0.361536	-0.238287	0.055535	-0.313760	-0.203255	0.068767	-0.395199	-0.173428	0.059558	-0.392074	-0.217793	0.943284	-0.731534	-0.193987	0.886973	-0.739125	-0.132379	0.904960	-0.729914	-0.148022	0.962081	-0.722256	-0.327657	0.407735	-0.743685	-0.341212	0.370252	-0.739282	-0.280712	0.353400	-0.746640	-0.274917	0.397848	-0.751056	-0.418092	0.177234	-0.692832	-0.274699	0.065635	-0.765182	-0.232403	0.068969	-0.697258	-0.203634	0.057441	-0.705631	
383	1.9150	-0.306050	1.710286	-0.526325	-0.274105	1.682259	-0.752140	-0.261777	1.687680	-0.326132	-0.166081	1.658351	-0.538933	-0.142831	1.193488	-0.413489	-0.144491	1.184808	-0.639481	-0.198370	1.264471	-0.367735	-0.000000	0.000000	-0.000000	-0.326233	1.229705	-0.464342	-0.000000	0.000000	-0.000000	-0.335852	1.233129	-0.519611	-0.217055	0.984647	-0.327436	-0.202017	0.927398	-0.316398	-0.139841	0.936560	-0.332703	-0.146734	0.996260	-0.345861	-0.308367	0.415858	-0.307428	-0.000000	0.000000	-0.000000	-0.258755	0.365788	-0.312895	-0.252390	0.405250	-0.309056	-0.390090	0.165531	-0.362080	-0.241432	0.052275	-0.313823	-0.205799	0.064873	-0.395222	-0.176115	0.054976	-0.392082	-0.217076	0.939786	-0.731495	-0.192949	0.883611	-0.739114	-0.131470	0.901913	-0.729705	-0.147429	0.958929	-0.721975	-0.326913	0.405210	-0.743886	-0.340730	0.367828	-0.739352	-0.280293	0.350561	-0.746476	-0.274205	0.394951	-0.750960	-0.419069	0.175519	-0.692831	-0.276097	0.062158	-0.763266	-0.234046	0.066095	-0.695295	-0.205364	0.054305	-0.703322	
